<?xml version="1.0" encoding="utf-8"?><!-- Uploaded to: SVG Repo, www.svgrepo.com, Generator: SVG Repo Mixer Tools -->
<svg version="1.1" id="Uploaded to svgrepo.com" xmlns="http://www.w3.org/2000/svg" xmlns:xlink="http://www.w3.org/1999/xlink" 
	 width="800px" height="800px" viewBox="0 0 32 32" xml:space="preserve">
<style type="text/css">
	.linesandangles_een{fill:#111918;}
</style>
<path class="linesandangles_een" d="M24.674,11.041L26,6l-5.041,1.326C19.426,6.449,17.715,6,16,6c-1.835,0-3.666,0.511-5.278,1.515
	H7.515v3.208c-2.008,3.223-2.008,7.332,0,10.555v3.208h3.208C12.334,25.489,14.165,26,16,26s3.666-0.511,5.278-1.515h3.208v-3.208
	C26.428,18.16,26.489,14.213,24.674,11.041z M10.343,21.657c-3.119-3.119-3.119-8.195,0-11.314C11.854,8.832,13.863,8,16,8
	c2.137,0,4.146,0.832,5.657,2.343c3.119,3.119,3.119,8.195,0,11.314C20.146,23.168,18.137,24,16,24
	C13.863,24,11.854,23.168,10.343,21.657z M16.773,13.114C16.525,13.047,16.269,13,16,13c-1.654,0-3,1.346-3,3
	c0,0.269,0.047,0.525,0.114,0.773L11,21l4.227-2.114C15.475,18.953,15.731,19,16,19c1.654,0,3-1.346,3-3
	c0-0.269-0.047-0.525-0.114-0.773L21,11L16.773,13.114z M16,17c-0.552,0-1-0.448-1-1c0-0.552,0.448-1,1-1s1,0.448,1,1
	C17,16.552,16.552,17,16,17z"/>
</svg>