<?xml version="1.0" encoding="utf-8"?><!-- Uploaded to: SVG Repo, www.svgrepo.com, Generator: SVG Repo Mixer Tools -->
<svg version="1.1" id="Uploaded to svgrepo.com" xmlns="http://www.w3.org/2000/svg" xmlns:xlink="http://www.w3.org/1999/xlink" 
	 width="800px" height="800px" viewBox="0 0 32 32" xml:space="preserve">
<style type="text/css">
	.linesandangles_een{fill:#111918;}
</style>
<path class="linesandangles_een" d="M28,22v2.127l-12-19l-12,19V22H2v5h10.566l1.338-2.229c0.896-1.495,1.598-3.078,2.096-4.729
	c0.499,1.652,1.2,3.235,2.096,4.729L19.434,27H30v-5H28z M12.189,23.742L11.434,25h-5.62L15,10.456v4.462l-0.362,2.172
	C14.245,19.451,13.42,21.689,12.189,23.742z M20.566,25l-0.755-1.258c-1.231-2.053-2.056-4.291-2.449-6.651L17,14.918v-4.462
	L26.186,25H20.566z"/>
</svg>