<?xml version="1.0" encoding="utf-8"?>
<!-- Uploaded to: SVG Repo, www.svgrepo.com, Generator: SVG Repo Mixer Tools -->
<svg width="800px" height="800px" viewBox="0 0 1024 1024" class="icon"  version="1.1" xmlns="http://www.w3.org/2000/svg"><path d="M709.485714 277.942857C709.485714 160.914286 614.4 65.828571 497.371429 65.828571S292.571429 160.914286 292.571429 277.942857c0 73.142857 204.8 358.4 204.8 358.4s212.114286-277.942857 212.114285-358.4z" fill="#F4B1B2" /><path d="M497.371429 709.485714l-21.942858-29.257143c-36.571429-51.2-219.428571-307.2-219.428571-387.657142C256 160.914286 365.714286 51.2 497.371429 51.2s241.371429 109.714286 241.371428 241.371429c0 87.771429-182.857143 336.457143-226.742857 387.657142l-14.628571 29.257143z m0-607.085714C394.971429 102.4 307.2 182.857143 307.2 292.571429c0 43.885714 102.4 204.8 190.171429 321.828571C585.142857 497.371429 687.542857 336.457143 687.542857 292.571429c0-109.714286-87.771429-190.171429-190.171428-190.171429z" fill="#D72822" /><path d="M928.914286 819.2H102.4C58.514286 819.2 14.628571 782.628571 14.628571 731.428571s36.571429-87.771429 87.771429-87.771428h138.971429c14.628571 0 29.257143 14.628571 29.257142 29.257143s-7.314286 29.257143-21.942857 29.257143h-146.285714c-14.628571 0-29.257143 14.628571-29.257143 29.257142s14.628571 29.257143 29.257143 29.257143h819.2c14.628571 0 29.257143 14.628571 29.257143 29.257143s-7.314286 29.257143-21.942857 29.257143z" fill="#D72822" /><path d="M928.914286 936.228571H226.742857c-14.628571 0-29.257143-14.628571-29.257143-29.257142s14.628571-29.257143 29.257143-29.257143h694.857143c14.628571 0 29.257143-14.628571 29.257143-29.257143s-14.628571-29.257143-29.257143-29.257143H102.4c-14.628571 0-29.257143-14.628571-29.257143-29.257143s14.628571-29.257143 29.257143-29.257143h819.2c43.885714 0 87.771429 36.571429 87.771429 87.771429s-36.571429 87.771429-80.457143 87.771428z" fill="#D72822" /><path d="M497.371429 263.314286m-80.457143 0a80.457143 80.457143 0 1 0 160.914285 0 80.457143 80.457143 0 1 0-160.914285 0Z" fill="#FDFBFB" /><path d="M497.371429 365.714286C438.857143 365.714286 394.971429 321.828571 394.971429 263.314286S438.857143 160.914286 497.371429 160.914286s102.4 43.885714 102.4 102.4S555.885714 365.714286 497.371429 365.714286z m0-153.6c-29.257143 0-51.2 21.942857-51.2 51.2s21.942857 51.2 51.2 51.2 51.2-21.942857 51.2-51.2-21.942857-51.2-51.2-51.2z" fill="#D72822" /></svg>